<svg width="452" height="99" viewBox="0 0 452 99" fill="none" xmlns="http://www.w3.org/2000/svg">
<path d="M29.8174 80.4141C35.9404 80.1276 40.1657 77.8896 42.4932 73.7002C43.7106 71.5518 44.3193 69.0632 44.3193 66.2344C44.3193 61.7585 42.6722 58.3568 39.3779 56.0293C37.4801 54.6686 34.2933 53.3796 29.8174 52.1621V80.4141ZM11.6094 28.583C11.6094 32.1279 12.7731 34.903 15.1006 36.9082C17.4639 38.9134 20.6328 40.3099 24.6074 41.0977V15.8535C19.9167 16.0326 16.5687 17.4648 14.5635 20.1504C12.5941 22.8359 11.6094 25.6468 11.6094 28.583ZM1.94141 29.2275C1.94141 23.7848 3.92871 18.8792 7.90332 14.5107C11.9137 10.1423 17.5176 7.9222 24.7148 7.85059V0.707031H29.8174V7.74316C36.943 8.24447 42.4036 10.3571 46.1992 14.0811C50.0306 17.7692 52.0358 22.6569 52.2148 28.7441H42.8154C42.5648 26.0228 41.8307 23.6774 40.6133 21.708C38.3574 18.0915 34.7588 16.1937 29.8174 16.0146V42.1182C38.1247 44.4456 43.7643 46.6299 46.7363 48.6709C51.5703 52.0368 53.9873 57.014 53.9873 63.6025C53.9873 73.1273 50.89 79.8949 44.6953 83.9053C41.2578 86.1253 36.2985 87.5934 29.8174 88.3096V98.7295H24.7148V88.3096C14.2949 87.6292 7.22298 83.9411 3.49902 77.2451C1.45801 73.6286 0.4375 68.7409 0.4375 62.582H9.94434C10.2308 67.4876 11.0007 71.0684 12.2539 73.3242C14.474 77.3704 18.5918 79.6442 24.6074 80.1455V50.873C16.873 49.4049 11.1618 46.9521 7.47363 43.5146C3.78548 40.0771 1.94141 35.3148 1.94141 29.2275ZM87.9863 9.08594C97.9408 9.08594 105.138 13.1859 109.578 21.3857C113.016 27.7236 114.734 36.4069 114.734 47.4355C114.734 57.8913 113.177 66.5387 110.062 73.3779C105.55 83.1891 98.1735 88.0947 87.9326 88.0947C78.6943 88.0947 71.8193 84.0843 67.3076 76.0635C63.5479 69.3675 61.668 60.3799 61.668 49.1006C61.668 40.3636 62.7959 32.862 65.0518 26.5957C69.277 14.9225 76.9219 9.08594 87.9863 9.08594ZM87.8789 79.2861C92.8919 79.2861 96.8844 77.0661 99.8564 72.626C102.828 68.1859 104.314 59.9144 104.314 47.8115C104.314 39.0745 103.24 31.8952 101.092 26.2734C98.9434 20.6159 94.7718 17.7871 88.5771 17.7871C82.8838 17.7871 78.7122 20.4727 76.0625 25.8438C73.4486 31.179 72.1416 39.0566 72.1416 49.4766C72.1416 57.3184 72.9831 63.6204 74.666 68.3828C77.2441 75.6517 81.6484 79.2861 87.8789 79.2861ZM128.86 74.291H140.086V86H128.86V74.291ZM179.832 9.08594C189.786 9.08594 196.984 13.1859 201.424 21.3857C204.861 27.7236 206.58 36.4069 206.58 47.4355C206.58 57.8913 205.022 66.5387 201.907 73.3779C197.396 83.1891 190.019 88.0947 179.778 88.0947C170.54 88.0947 163.665 84.0843 159.153 76.0635C155.394 69.3675 153.514 60.3799 153.514 49.1006C153.514 40.3636 154.642 32.862 156.897 26.5957C161.123 14.9225 168.768 9.08594 179.832 9.08594ZM179.725 79.2861C184.738 79.2861 188.73 77.0661 191.702 72.626C194.674 68.1859 196.16 59.9144 196.16 47.8115C196.16 39.0745 195.086 31.8952 192.938 26.2734C190.789 20.6159 186.618 17.7871 180.423 17.7871C174.729 17.7871 170.558 20.4727 167.908 25.8438C165.294 31.179 163.987 39.0566 163.987 49.4766C163.987 57.3184 164.829 63.6204 166.512 68.3828C169.09 75.6517 173.494 79.2861 179.725 79.2861ZM241.062 9.08594C251.017 9.08594 258.214 13.1859 262.654 21.3857C266.092 27.7236 267.811 36.4069 267.811 47.4355C267.811 57.8913 266.253 66.5387 263.138 73.3779C258.626 83.1891 251.25 88.0947 241.009 88.0947C231.771 88.0947 224.896 84.0843 220.384 76.0635C216.624 69.3675 214.744 60.3799 214.744 49.1006C214.744 40.3636 215.872 32.862 218.128 26.5957C222.353 14.9225 229.998 9.08594 241.062 9.08594ZM240.955 79.2861C245.968 79.2861 249.961 77.0661 252.933 72.626C255.905 68.1859 257.391 59.9144 257.391 47.8115C257.391 39.0745 256.316 31.8952 254.168 26.2734C252.02 20.6159 247.848 17.7871 241.653 17.7871C235.96 17.7871 231.788 20.4727 229.139 25.8438C226.525 31.179 225.218 39.0566 225.218 49.4766C225.218 57.3184 226.059 63.6204 227.742 68.3828C230.32 75.6517 234.725 79.2861 240.955 79.2861ZM302.293 9.08594C312.247 9.08594 319.445 13.1859 323.885 21.3857C327.322 27.7236 329.041 36.4069 329.041 47.4355C329.041 57.8913 327.483 66.5387 324.368 73.3779C319.856 83.1891 312.48 88.0947 302.239 88.0947C293.001 88.0947 286.126 84.0843 281.614 76.0635C277.854 69.3675 275.975 60.3799 275.975 49.1006C275.975 40.3636 277.103 32.862 279.358 26.5957C283.584 14.9225 291.229 9.08594 302.293 9.08594ZM302.186 79.2861C307.199 79.2861 311.191 77.0661 314.163 72.626C317.135 68.1859 318.621 59.9144 318.621 47.8115C318.621 39.0745 317.547 31.8952 315.398 26.2734C313.25 20.6159 309.078 17.7871 302.884 17.7871C297.19 17.7871 293.019 20.4727 290.369 25.8438C287.755 31.179 286.448 39.0566 286.448 49.4766C286.448 57.3184 287.29 63.6204 288.973 68.3828C291.551 75.6517 295.955 79.2861 302.186 79.2861ZM337.205 86C337.563 79.3757 338.924 73.6107 341.287 68.7051C343.686 63.7995 348.341 59.3415 355.252 55.3311L365.564 49.3691C370.184 46.6836 373.424 44.3919 375.286 42.4941C378.222 39.5221 379.69 36.1204 379.69 32.2891C379.69 27.8132 378.348 24.2682 375.662 21.6543C372.977 19.0046 369.396 17.6797 364.92 17.6797C358.296 17.6797 353.712 20.1862 351.17 25.1992C349.809 27.8848 349.057 31.6087 348.914 36.3711H339.085C339.192 29.6751 340.428 24.2145 342.791 19.9893C346.98 12.5413 354.375 8.81738 364.974 8.81738C373.782 8.81738 380.21 11.1986 384.256 15.9609C388.338 20.7233 390.379 26.0228 390.379 31.8594C390.379 38.0182 388.213 43.2819 383.88 47.6504C381.373 50.1927 376.88 53.2721 370.398 56.8887L363.04 60.9707C359.531 62.9043 356.774 64.7484 354.769 66.5029C351.188 69.6182 348.932 73.0736 348.001 76.8691H390.003V86H337.205ZM408.587 66.3955C409.231 71.9098 411.792 75.7233 416.268 77.8359C418.559 78.9102 421.209 79.4473 424.217 79.4473C429.946 79.4473 434.189 77.6211 436.946 73.9688C439.703 70.3164 441.082 66.2702 441.082 61.8301C441.082 56.459 439.435 52.3053 436.141 49.3691C432.882 46.4329 428.961 44.9648 424.378 44.9648C421.048 44.9648 418.183 45.6094 415.784 46.8984C413.421 48.1875 411.398 49.9779 409.715 52.2695L401.336 51.7861L407.19 10.375H447.151V19.7207H414.441L411.165 41.0977C412.955 39.737 414.656 38.7165 416.268 38.0361C419.132 36.8545 422.444 36.2637 426.204 36.2637C433.258 36.2637 439.238 38.5374 444.144 43.085C449.049 47.6325 451.502 53.3975 451.502 60.3799C451.502 67.6488 449.246 74.0583 444.734 79.6084C440.258 85.1585 433.097 87.9336 423.25 87.9336C416.984 87.9336 411.434 86.179 406.6 82.6699C401.801 79.125 399.116 73.7002 398.543 66.3955H408.587Z" fill="url(#paint0_linear_1_68)"/>
<defs>
<linearGradient id="paint0_linear_1_68" x1="495" y1="-44.5" x2="-59" y2="126.5" gradientUnits="userSpaceOnUse">
<stop stop-color="#00FFBD"/>
<stop offset="1" stop-color="#025B8C"/>
</linearGradient>
</defs>
</svg>
