<svg width="321" height="75" viewBox="0 0 321 75" fill="none" xmlns="http://www.w3.org/2000/svg">
<path d="M0.666016 22.9932V16.1875C7.07715 15.5628 11.5485 14.5272 14.0801 13.0806C16.6117 11.6011 18.5021 8.13249 19.7515 2.6748H26.7544V73H17.2856V22.9932H0.666016ZM49.3906 22.9932V16.1875C55.8018 15.5628 60.2731 14.5272 62.8047 13.0806C65.3363 11.6011 67.2267 8.13249 68.4761 2.6748H75.479V73H66.0103V22.9932H49.3906ZM104.576 62.249H114.883V73H104.576V62.249ZM136.533 54.9995C137.125 60.0627 139.475 63.5641 143.585 65.5039C145.689 66.4902 148.122 66.9834 150.884 66.9834C156.144 66.9834 160.04 65.3066 162.572 61.9531C165.103 58.5996 166.369 54.8844 166.369 50.8076C166.369 45.876 164.857 42.0622 161.832 39.3662C158.84 36.6702 155.24 35.3223 151.032 35.3223C147.974 35.3223 145.344 35.9141 143.141 37.0977C140.971 38.2812 139.114 39.9251 137.568 42.0293L129.875 41.5854L135.25 3.5625H171.942V12.1436H141.908L138.9 31.7715C140.544 30.5221 142.105 29.5851 143.585 28.9604C146.215 27.8755 149.256 27.333 152.708 27.333C159.185 27.333 164.676 29.4207 169.18 33.5962C173.684 37.7716 175.937 43.0649 175.937 49.4761C175.937 56.1502 173.865 62.0353 169.723 67.1313C165.613 72.2274 159.037 74.7754 149.996 74.7754C144.243 74.7754 139.146 73.1644 134.708 69.9424C130.302 66.6875 127.837 61.7065 127.311 54.9995H136.533ZM187.723 0.554199H201.778L222.59 61.8052L243.253 0.554199H257.161V73H247.84V30.2427C247.84 28.7632 247.873 26.3138 247.938 22.8945C248.004 19.4753 248.037 15.8094 248.037 11.897L227.374 73H217.658L196.847 11.897V14.1162C196.847 15.8916 196.88 18.604 196.945 22.2534C197.044 25.87 197.093 28.533 197.093 30.2427V73H187.723V0.554199ZM268.947 51.3994V43.1143H290.449V21.4644H298.882V43.1143H320.384V51.3994H298.882V73H290.449V51.3994H268.947Z" fill="url(#paint0_linear_1_58)"/>
<defs>
<linearGradient id="paint0_linear_1_58" x1="354.5" y1="-28" x2="-9" y2="104" gradientUnits="userSpaceOnUse">
<stop stop-color="#19FB9B"/>
<stop offset="1" stop-color="#8C01FA"/>
</linearGradient>
</defs>
</svg>
