<svg width="285" height="80" viewBox="0 0 285 80" fill="none" xmlns="http://www.w3.org/2000/svg">
<path d="M0.3125 77C0.657552 70.6165 1.96875 65.0612 4.24609 60.334C6.55794 55.6068 11.0436 51.3109 17.7031 47.4463L27.6406 41.7012C32.0918 39.1133 35.2145 36.9049 37.0088 35.0762C39.8382 32.2122 41.2529 28.9342 41.2529 25.2422C41.2529 20.929 39.959 17.513 37.3711 14.9941C34.7832 12.4408 31.3327 11.1641 27.0195 11.1641C20.6361 11.1641 16.2194 13.5794 13.7695 18.4102C12.4583 20.998 11.7337 24.5866 11.5957 29.1758H2.12402C2.22754 22.7233 3.41797 17.4613 5.69531 13.3896C9.73242 6.21257 16.8577 2.62402 27.0713 2.62402C35.5596 2.62402 41.7533 4.91862 45.6523 9.50781C49.5859 14.097 51.5527 19.2038 51.5527 24.8281C51.5527 30.763 49.4652 35.8353 45.29 40.0449C42.8747 42.4948 38.5443 45.4622 32.2988 48.9473L25.208 52.8809C21.8265 54.7441 19.1696 56.5212 17.2373 58.2119C13.7868 61.2139 11.613 64.5436 10.7158 68.2012H51.1904V77H0.3125ZM66.1484 24.5176V17.375C72.877 16.7194 77.5697 15.6325 80.2266 14.1143C82.8835 12.5615 84.8675 8.92122 86.1787 3.19336H93.5283V77H83.5908V24.5176H66.1484ZM124.065 65.7168H134.883V77H124.065V65.7168ZM158.588 59.0918C158.864 64.2331 160.848 67.7871 164.54 69.7539C166.438 70.7891 168.577 71.3066 170.958 71.3066C175.409 71.3066 179.205 69.4606 182.345 65.7686C185.485 62.042 187.71 54.5026 189.021 43.1504C186.951 46.4284 184.381 48.7402 181.31 50.0859C178.273 51.3971 174.995 52.0527 171.476 52.0527C164.333 52.0527 158.674 49.8271 154.499 45.376C150.358 40.9248 148.288 35.1969 148.288 28.1924C148.288 21.4639 150.341 15.5462 154.447 10.4395C158.553 5.33268 164.609 2.7793 172.614 2.7793C183.414 2.7793 190.868 7.64453 194.974 17.375C197.251 22.7233 198.39 29.4173 198.39 37.457C198.39 46.5319 197.027 54.5716 194.301 61.5762C189.781 73.2389 182.12 79.0703 171.32 79.0703C164.074 79.0703 158.571 77.1725 154.81 73.377C151.049 69.5814 149.168 64.8197 149.168 59.0918H158.588ZM172.718 43.875C176.41 43.875 179.774 42.6673 182.811 40.252C185.882 37.8021 187.417 33.5407 187.417 27.4678C187.417 22.016 186.037 17.9616 183.276 15.3047C180.55 12.6133 177.065 11.2676 172.821 11.2676C168.267 11.2676 164.644 12.8031 161.952 15.874C159.295 18.9105 157.967 22.9821 157.967 28.0889C157.967 32.9196 159.14 36.7669 161.486 39.6309C163.833 42.4603 167.576 43.875 172.718 43.875ZM211.329 0.967773H226.08L247.922 65.251L269.608 0.967773H284.204V77H274.422V32.126C274.422 30.5732 274.456 28.0026 274.525 24.4141C274.594 20.8255 274.629 16.9782 274.629 12.8721L252.942 77H242.746L220.904 12.8721V15.2012C220.904 17.0645 220.939 19.9111 221.008 23.7412C221.111 27.5368 221.163 30.3317 221.163 32.126V77H211.329V0.967773Z" fill="url(#paint0_linear_1_63)"/>
<defs>
<linearGradient id="paint0_linear_1_63" x1="335.5" y1="-36" x2="-36" y2="106" gradientUnits="userSpaceOnUse">
<stop stop-color="#0047FF"/>
<stop offset="1" stop-color="#00BCD4"/>
</linearGradient>
</defs>
</svg>
